<svg height="512pt" viewBox="0 0 512.01787 512" width="512pt" xmlns="http://www.w3.org/2000/svg"><path d="m260.339844 459.941406c8.820312-2.734375 17.480468-5.949218 25.945312-9.632812 10.152344-4.339844 20.21875-9.113282 30.199219-13.972656-2.621094-3.105469-4.066406-7.039063-4.078125-11.105469v-34.714844c.027344-9.570313 7.78125-17.324219 17.355469-17.355469h52.070312v-52.066406c.027344-9.574219 7.78125-17.328125 17.355469-17.355469h34.710938c9.574218.027344 17.328124 7.78125 17.355468 17.355469v8.9375c14.015625-19.554688 26.050782-40.457031 35.925782-62.394531 16.824218-38.910157 25.28125-80.921875 24.820312-123.3125 0-82.179688-61.960938-144.3164065-138.414062-144.3164065-45.980469.4726565-88.585938 24.2265625-113.160157 63.0898435-24.679687-38.84375-67.316406-62.578125-113.335937-63.0898435-76.453125 0-138.410156 62.1367185-138.410156 144.3164065 0 243.503906 251.660156 315.617187 251.660156 315.617187zm201.414062-253.570312c4.640625-20.355469 6.941406-41.171875 6.855469-62.046875 0-4.792969 3.886719-8.679688 8.679687-8.679688 4.792969 0 8.675782 3.886719 8.675782 8.679688.074218 22.160156-2.371094 44.257812-7.289063 65.863281-.835937 3.972656-4.359375 6.804688-8.417969 6.769531-.644531 0-1.285156-.085937-1.90625-.257812-4.671874-1.039063-7.621093-5.65625-6.597656-10.328125zm-131.992187 132.078125c4.792969 0 8.679687 3.886719 8.679687 8.679687 0 4.792969-3.886718 8.675782-8.679687 8.675782-19.167969 0-34.710938 15.542968-34.710938 34.710937 0 4.792969-3.886719 8.679687-8.679687 8.679687-4.789063 0-8.675782-3.886718-8.675782-8.679687 0-28.753906 23.3125-52.066406 52.066407-52.066406zm-182.671875-312.40625c20.328125.0625 40.195312 6.03125 57.191406 17.183593 3.226562 2.082032 4.699219 6.042969 3.617188 9.730469-1.082032 3.6875-4.460938 6.226563-8.304688 6.234375-1.667969.023438-3.300781-.460937-4.6875-1.386718-14.203125-9.335938-30.816406-14.34375-47.816406-14.40625-4.792969 0-8.675782-3.886719-8.675782-8.675782 0-4.792968 3.882813-8.679687 8.675782-8.679687zm-69.855469 49.117187c-16.492187 19.242188-25.433594 43.820313-25.167969 69.164063 0 4.792969-3.882812 8.675781-8.675781 8.675781s-8.679687-3.882812-8.679687-8.675781c-.257813-29.5625 10.226562-58.207031 29.507812-80.617188 3.214844-3.351562 8.503906-3.574219 11.988281-.503906 3.488281 3.066406 3.941407 8.339844 1.027344 11.957031zm0 0"/><path d="m503.320312 425.230469v-34.714844h-52.066406c-9.574218-.027344-17.328125-7.78125-17.355468-17.355469v-52.066406h-34.710938v52.066406c-.046875 9.566406-7.792969 17.308594-17.355469 17.355469h-52.070312v34.714844h52.070312c9.570313.027343 17.324219 7.78125 17.355469 17.355469v52.066406h34.710938v-52.066406c.027343-9.574219 7.78125-17.328126 17.355468-17.355469zm0 0"/><path d="m8.679688 402.085938h8.675781v8.675781c0 4.792969 3.886719 8.679687 8.679687 8.679687 4.792969 0 8.675782-3.886718 8.675782-8.679687v-8.675781h8.679687c4.792969 0 8.675781-3.886719 8.675781-8.679688s-3.882812-8.675781-8.675781-8.675781h-8.679687v-8.679688c0-4.792969-3.882813-8.675781-8.675782-8.675781-4.792968 0-8.679687 3.882812-8.679687 8.675781v8.679688h-8.675781c-4.792969 0-8.679688 3.882812-8.679688 8.675781s3.886719 8.679688 8.679688 8.679688zm0 0"/><path d="m130.167969 459.941406c-4.792969 0-8.675781 3.886719-8.675781 8.675782v8.679687h-8.679688c-4.792969 0-8.675781 3.886719-8.675781 8.679687 0 4.792969 3.882812 8.675782 8.675781 8.675782h8.679688v8.679687c0 4.792969 3.882812 8.675781 8.675781 8.675781s8.679687-3.882812 8.679687-8.675781v-8.679687h8.679688c4.789062 0 8.675781-3.882813 8.675781-8.675782 0-4.792968-3.886719-8.679687-8.675781-8.679687h-8.679688v-8.679687c0-4.789063-3.886718-8.675782-8.679687-8.675782zm0 0"/></svg>