<svg height="512pt" viewBox="-9 0 512 512.0015" width="512pt" xmlns="http://www.w3.org/2000/svg"><path d="m432.550781 0c-4.875 0-8.824219 3.953125-8.824219 8.828125v8.828125h-8.828124c-4.875 0-8.828126 3.949219-8.828126 8.828125 0 4.875 3.953126 8.824219 8.828126 8.824219h8.828124v8.828125c0 4.875 3.949219 8.828125 8.824219 8.828125 4.878907 0 8.828125-3.953125 8.828125-8.828125v-8.828125h8.828125c4.875 0 8.828125-3.949219 8.828125-8.824219 0-4.878906-3.953125-8.828125-8.828125-8.828125h-8.828125v-8.828125c0-4.875-3.949218-8.828125-8.828125-8.828125zm0 0"/><path d="m132.414062 220.691406c4.875 0 8.828126-3.953125 8.828126-8.828125v-8.828125h8.828124c4.875 0 8.828126-3.953125 8.828126-8.828125s-3.953126-8.828125-8.828126-8.828125h-8.828124v-8.828125c0-4.875-3.953126-8.828125-8.828126-8.828125s-8.828124 3.953125-8.828124 8.828125v8.828125h-8.828126c-4.875 0-8.824218 3.953125-8.824218 8.828125s3.949218 8.828125 8.824218 8.828125h8.828126v8.828125c0 4.875 3.953124 8.828125 8.828124 8.828125zm0 0"/><path d="m0 503.121094c.00390625 4.902344 3.980469 8.875 8.882812 8.878906h37.25c21.1875-85.699219 54.835938-143.226562 103.285157-174.476562-16.457031-6.984376-34.121094-10.6875-51.996094-10.902344-33.09375.585937-65.378906 10.339844-93.261719 28.175781-2.574218 1.625-4.1406248 4.445313-4.160156 7.488281zm0 0"/><path d="m493.808594 398.796875-24.179688-96.515625c-14.035156-55.921875-51.660156-107.148438-74.152344-137.707031-5.296874-7.238281-9.851562-13.429688-13.171874-18.390625-4.03125-6.046875-10.105469-16.222656-18.035157-30.269532-11.4375-20.160156-27.441406-37.363281-46.730469-50.21875l-61.070312-40.605468c-7.277344-4.855469-15.835938-7.445313-24.585938-7.433594h-6.972656c-16.375-.03125-31.425781 8.984375-39.125 23.4375-5.167968 10.175781-4.863281 22.273438.8125 32.175781 8.324219 14.910157 22.617188 32.660157 43.644532 32.660157 20.367187-.652344 40.707031 1.894531 60.285156 7.550781 4.183594 1.386719 7.953125 3.792969 10.980468 7 34.320313 36.746093 30.832032 78.46875 27.761719 115.277343-.882812 10.214844-1.660156 19.863282-1.660156 29.070313.246094 12.59375 1.878906 25.121094 4.875 37.359375 1.8125 7.980469-.179687 16.351562-5.394531 22.660156 17.046875 7.140625 33.332031 15.972656 48.613281 26.367188 2.613281 1.765625 4.085937 4.792968 3.867187 7.941406-.222656 3.144531-2.109374 5.933594-4.945312 7.316406-2.835938 1.382813-6.195312 1.144532-8.808594-.621094-20.242187-13.960937-42.484375-24.765624-65.96875-32.046874-.160156-.042969-.316406 0-.476562-.070313-14.042969-4.429687-28.648438-6.824219-43.371094-7.113281-6.636719 0-13.011719.316406-19.242188.820312-4.089843.351563-8.035156.9375-11.988281 1.511719-1.882812.261719-3.804687.464844-5.652343.773437-4.886719.882813-9.648438 1.945313-14.316407 3.171876-.707031.183593-1.4375.34375-2.144531.539062-5.148438 1.421875-10.152344 3.070312-15.007812 4.941406l-.378907.140625c-59.1875 22.960938-98.992187 79.777344-122.90625 173.480469h75.210938c4.699219.015625 9.210937-1.851562 12.527343-5.183594l5.964844-5.949218c4.742188-4.757813 11.789063-6.394532 18.140625-4.210938 31.765625 10.269531 64.949219 15.445312 98.332031 15.34375 145.222657 0 200.535157-70.160156 217.574219-100.324219 2.207031-3.914062 2.8125-8.53125 1.695313-12.878906zm0 0"/></svg>