<svg id="Capa_1" enable-background="new 0 0 512 512" height="512" viewBox="0 0 512 512" width="512" xmlns="http://www.w3.org/2000/svg"><g><circle cx="256" cy="301" r="60"/><path d="m256 211c33.091 0 60-26.909 60-60 0-27.393-39.082-98.958-46.919-112.903-5.303-9.463-20.859-9.463-26.162 0-7.837 13.945-46.919 85.51-46.919 112.903 0 33.091 26.909 60 60 60z"/><path d="m363.52 280.258c-8.057-1.553-15.952 3.911-17.446 12.056-1.494 8.159 3.911 15.967 12.056 17.446 84.418 15.41 123.87 45.146 123.87 66.24 0 35.405-97.226 75-226 75s-226-39.595-226-75c0-21.094 39.452-50.83 123.856-66.24 8.145-1.479 13.55-9.302 12.056-17.446-1.479-8.145-9.214-13.594-17.446-12.056-92.344 16.846-148.466 52.646-148.466 95.742 0 68.203 132.382 105 256 105s256-36.797 256-105c0-43.096-56.137-78.896-148.48-95.742z"/><path d="m179.198 349.94c-1.26-8.159-8.936-13.652-17.124-12.524-49.145 7.603-71.074 19.512-71.074 38.584 0 41.748 126.299 45 165 45s165-3.252 165-45c0-19.072-21.929-30.981-71.074-38.584-8.174-1.143-15.864 4.365-17.124 12.524-1.26 8.188 4.351 15.864 12.524 17.124 19.482 3.018 31.201 6.343 38.071 8.965-18.369 6.724-62.094 14.971-127.397 14.971s-109.028-8.247-127.397-14.971c6.87-2.622 18.589-5.947 38.071-8.965 8.174-1.259 13.784-8.935 12.524-17.124z"/></g></svg>